<?xml version="1.0" encoding="utf-8"?>
<!-- Generator: Adobe Illustrator 26.2.1, SVG Export Plug-In . SVG Version: 6.00 Build 0)  -->
<svg version="1.1" id="Layer_1" xmlns="http://www.w3.org/2000/svg" xmlns:xlink="http://www.w3.org/1999/xlink" x="0px" y="0px"
	 viewBox="0 0 100 100" style="enable-background:new 0 0 100 100;" xml:space="preserve">
<style type="text/css">
	.st0{fill:#FFFFFF;}
	.st1{fill:none;stroke:#FFFFFF;stroke-width:5;stroke-miterlimit:10;}
</style>
<g>
	<path class="st0" d="M88.79,22c1.22,0,2.21,0.99,2.21,2.21v47.58c0,1.22-0.99,2.21-2.21,2.21H11.21C9.99,74,9,73.01,9,71.79V24.21
		C9,22.99,9.99,22,11.21,22H88.79 M88.79,15H11.21C6.12,15,2,19.12,2,24.21v47.58C2,76.88,6.12,81,11.21,81h77.58
		c5.09,0,9.21-4.12,9.21-9.21V24.21C98,19.12,93.88,15,88.79,15L88.79,15z"/>
</g>
<polyline class="st1" points="7.5,19.5 50,50 92.98,19.5 "/>
</svg>
